<?xml version="1.0" standalone="no"?>
<!DOCTYPE svg PUBLIC "-//W3C//DTD SVG 20010904//EN"
 "http://www.w3.org/TR/2001/REC-SVG-20010904/DTD/svg10.dtd">
<svg version="1.0" xmlns="http://www.w3.org/2000/svg"
  viewBox="0 0 1047.000000 801.000000"
 preserveAspectRatio="xMidYMid meet">

<g transform="translate(0.000000,801.000000) scale(0.100000,-0.100000)"
fill="#000000" stroke="none">
<path d="M2535 7985 l-25 -24 0 -1186 0 -1185 -85 0 -85 0 -2 1186 c-3 1161
-3 1186 -22 1200 -27 19 -70 18 -89 -4 -16 -17 -17 -118 -17 -1249 0 -1025 2
-1232 14 -1242 10 -8 226 -10 797 -9 l784 3 13 28 c11 22 11 32 0 55 l-13 27
-583 3 -582 2 0 1190 c0 1177 0 1190 -20 1210 -27 27 -56 25 -85 -5z"/>
<path d="M3981 7993 l-22 -18 3 -1005 3 -1005 27 -71 c70 -191 210 -329 400
-395 82 -29 85 -29 321 -29 214 0 244 2 300 21 162 54 299 169 375 317 74 142
72 100 72 1190 0 959 0 972 -20 992 -25 25 -51 25 -81 1 l-24 -19 -5 -999 -5
-1000 -43 -87 c-56 -113 -131 -190 -233 -240 -96 -47 -150 -56 -334 -56 -182
0 -236 9 -334 55 -87 41 -194 143 -233 220 -66 130 -62 60 -65 1135 l-3 975
-21 18 c-12 9 -29 17 -39 17 -10 0 -27 -8 -39 -17z"/>
<path d="M5980 7993 c-23 -8 -40 -34 -40 -60 0 -13 45 -85 106 -171 58 -81
204 -284 324 -452 120 -168 228 -318 240 -335 181 -252 250 -350 250 -355 0
-3 -19 -30 -42 -60 -23 -30 -125 -165 -226 -300 -102 -135 -220 -290 -262
-345 -282 -369 -283 -371 -241 -409 35 -31 70 -17 121 49 97 126 282 370 475
625 256 340 254 337 263 325 13 -19 91 -129 134 -191 24 -33 108 -151 188
-262 114 -159 468 -652 600 -837 20 -27 309 -432 344 -481 8 -12 97 -135 197
-275 100 -140 194 -271 208 -291 14 -20 137 -191 272 -380 135 -189 355 -495
487 -680 l242 -338 0 -418 c0 -393 1 -420 18 -435 24 -22 65 -21 85 1 15 17
17 63 17 456 l0 437 -52 75 c-46 64 -434 607 -504 704 -226 314 -283 393 -313
437 -20 28 -135 189 -256 358 -121 168 -232 323 -246 343 -14 20 -187 262
-384 537 -197 275 -468 653 -602 840 -133 187 -360 504 -504 705 -144 201
-390 544 -546 762 -252 352 -313 430 -333 427 -3 0 -12 -3 -20 -6z"/>
<path d="M7888 7992 c-9 -4 -38 -35 -65 -68 -80 -102 -497 -639 -558 -720 -16
-21 -55 -70 -86 -109 -31 -38 -68 -89 -84 -112 l-27 -42 26 -43 c14 -24 47
-72 73 -108 26 -36 74 -104 107 -151 144 -204 265 -375 321 -454 33 -46 128
-180 211 -297 83 -117 386 -546 674 -953 288 -407 541 -765 562 -795 21 -30
72 -102 113 -160 41 -58 90 -127 110 -155 19 -27 49 -71 67 -96 18 -25 94
-132 168 -238 137 -194 161 -218 199 -194 18 11 60 69 216 298 129 190 251
367 412 602 150 219 147 214 140 245 -8 32 -56 54 -84 40 -10 -6 -53 -61 -95
-124 -42 -62 -107 -158 -145 -213 -38 -55 -109 -158 -158 -230 -186 -271 -268
-391 -288 -423 -16 -27 -22 -31 -32 -20 -6 7 -191 267 -410 578 -219 311 -412
583 -428 605 -16 22 -103 146 -195 275 -91 129 -185 262 -208 295 -24 33 -60
85 -81 115 -21 30 -74 105 -118 167 -44 62 -114 161 -156 220 -42 59 -252 356
-466 659 l-390 552 81 105 c45 57 213 275 375 483 162 209 296 389 299 401 3
14 -5 31 -21 47 -27 27 -32 29 -59 18z"/>
<path d="M745 4439 c-84 -12 -217 -55 -299 -96 -235 -118 -356 -297 -358 -528
-2 -158 48 -287 153 -393 125 -128 295 -202 584 -256 128 -24 352 -82 450
-116 201 -72 309 -151 379 -281 52 -94 47 -266 -11 -386 -43 -91 -169 -211
-274 -262 -122 -58 -244 -84 -404 -84 -269 0 -454 67 -749 273 -12 8 -45 34
-75 58 -61 48 -82 52 -116 17 -38 -37 -31 -57 40 -123 167 -153 389 -271 603
-321 275 -64 532 -41 759 69 270 131 405 346 390 620 -9 158 -52 257 -156 358
-125 122 -254 173 -729 286 -263 63 -352 91 -452 141 -221 111 -311 309 -245
537 42 143 198 270 412 334 108 32 310 44 431 24 160 -25 366 -108 506 -203
69 -47 110 -52 138 -18 28 36 22 56 -33 105 -196 176 -633 289 -944 245z"/>
<path d="M2130 4443 c-42 -15 -53 -70 -20 -103 20 -20 33 -20 815 -20 782 0
795 0 815 20 20 20 26 56 12 76 -22 33 -47 34 -829 33 -428 0 -785 -3 -793 -6z"/>
<path d="M4290 4430 c-20 -20 -20 -33 -20 -1250 l0 -1231 25 -25 c27 -27 54
-26 88 4 16 14 17 84 17 1204 l0 1188 85 0 85 0 0 -1178 0 -1179 23 -21 c29
-27 61 -28 87 -2 19 19 20 33 20 525 l0 505 265 0 265 0 32 -72 c470 -1034
461 -1017 526 -986 54 27 46 50 -218 623 -134 292 -250 538 -258 548 -14 15
-41 17 -309 17 l-293 0 0 89 0 90 328 3 327 3 80 33 c186 74 320 225 366 412
29 119 11 296 -41 400 -81 160 -253 285 -426 310 -38 5 -284 10 -551 10 -470
0 -484 -1 -503 -20z m1071 -126 c84 -25 143 -59 202 -117 225 -220 157 -597
-132 -736 l-76 -36 -327 -3 -328 -3 0 455 0 456 303 0 c250 0 313 -3 358 -16z"/>
<path d="M7230 4441 c-411 -44 -799 -317 -990 -698 -89 -179 -130 -357 -130
-569 0 -543 332 -1012 848 -1198 392 -141 862 -65 1198 194 79 62 224 217 276
295 98 150 169 327 199 495 19 108 17 344 -5 455 -99 507 -495 906 -1001 1010
-88 18 -296 26 -395 16z m307 -132 c219 -30 454 -145 622 -304 372 -352 467
-902 232 -1352 -246 -473 -783 -714 -1295 -583 -178 45 -352 141 -489 270
-113 106 -191 210 -256 342 -241 491 -94 1082 352 1414 236 176 542 254 834
213z"/>
<path d="M2110 4130 c-29 -29 -26 -74 6 -99 26 -20 38 -21 390 -21 l364 0 0
-1032 c0 -568 4 -1038 8 -1044 27 -42 95 -35 112 12 7 16 9 389 8 1045 l-3
1019 361 0 c350 0 362 1 388 21 32 25 35 70 6 99 -20 20 -33 20 -820 20 -787
0 -800 0 -820 -20z"/>
<path d="M139 947 c-66 -35 -102 -93 -107 -170 -3 -51 1 -70 21 -106 51 -93
156 -133 251 -97 53 20 85 51 68 68 -8 8 -21 4 -48 -13 -48 -29 -125 -32 -169
-5 -82 48 -105 156 -51 234 51 74 143 90 224 40 24 -15 37 -17 44 -10 28 28
-66 82 -140 82 -32 0 -64 -8 -93 -23z"/>
<path d="M547 963 c-14 -29 0 -38 61 -41 l62 -3 0 -179 0 -180 25 0 25 0 0
180 0 180 60 0 c57 0 60 1 60 25 l0 25 -144 0 c-80 0 -147 -3 -149 -7z"/>
<path d="M1035 958 c-3 -7 -4 -99 -3 -203 3 -188 3 -190 26 -193 20 -3 22 0
22 51 l0 54 81 6 c87 6 114 18 153 71 29 38 29 114 0 153 -38 51 -79 67 -181
71 -73 4 -94 1 -98 -10z m226 -66 c26 -23 32 -36 32 -71 0 -72 -57 -111 -165
-111 l-48 0 0 105 0 105 75 0 c68 0 78 -3 106 -28z"/>
<path d="M1652 960 c-74 -30 -132 -117 -132 -197 0 -48 29 -112 66 -147 105
-99 272 -60 328 76 55 132 -47 279 -193 277 -25 0 -56 -4 -69 -9z m158 -59
c45 -33 70 -80 70 -133 0 -55 -10 -80 -48 -121 -78 -83 -230 -38 -261 77 -21
79 29 172 105 196 39 12 104 3 134 -19z"/>
<path d="M2130 766 c0 -158 3 -206 13 -206 6 0 64 70 127 156 l115 154 3 -155
c2 -155 3 -156 25 -153 22 3 22 4 22 202 0 138 -3 200 -11 203 -6 2 -63 -66
-125 -151 -63 -85 -116 -155 -119 -155 -3 -1 -5 68 -5 151 0 151 0 153 -22
156 l-23 3 0 -205z"/>
<path d="M2624 955 c-10 -26 7 -35 67 -35 l59 0 0 -181 c0 -177 0 -180 21
-177 20 3 21 8 20 180 l-2 177 63 3 c57 3 63 5 66 26 3 22 3 22 -143 22 -118
0 -147 -3 -151 -15z"/>
<path d="M3110 765 l0 -206 128 3 c123 3 127 4 130 26 3 22 2 22 -102 22
l-106 0 0 65 c0 45 4 65 13 66 6 0 49 0 95 0 81 -1 82 0 82 24 0 25 -1 25 -95
25 l-95 0 0 65 0 64 103 3 c94 3 102 4 102 23 0 19 -8 20 -127 23 l-128 3 0
-206z"/>
<path d="M3684 933 c-9 -21 -41 -99 -71 -173 -30 -74 -61 -147 -69 -162 -19
-37 -18 -40 12 -36 24 3 32 17 88 156 33 83 63 152 66 152 4 0 87 -197 119
-282 8 -21 17 -28 37 -28 17 0 24 4 21 13 -3 6 -39 94 -81 194 -41 101 -78
187 -81 193 -12 19 -25 10 -41 -27z"/>
<path d="M4080 765 l0 -205 93 0 c50 0 109 5 130 11 103 28 103 200 0 228 -21
6 -68 11 -105 11 l-68 0 0 80 c0 79 0 80 -25 80 l-25 0 0 -205z m239 -26 c23
-22 27 -59 10 -92 -18 -34 -28 -37 -116 -37 l-83 0 0 73 c0 41 2 76 4 78 2 2
40 3 84 1 63 -3 84 -8 101 -23z"/>
<path d="M4675 952 c-120 -56 -159 -202 -82 -305 68 -90 187 -113 277 -53 37
24 41 30 28 43 -13 12 -19 12 -49 -5 -131 -76 -269 18 -245 166 6 41 29 76 70
106 40 30 134 29 176 -3 29 -21 34 -22 47 -8 14 14 11 18 -27 43 -55 36 -137
43 -195 16z"/>
<path d="M5072 948 c3 -21 9 -23 66 -26 l62 -3 0 -179 c0 -173 1 -180 20 -180
19 0 20 7 20 180 l0 179 63 3 c54 3 62 5 62 23 0 19 -8 20 -148 23 l-148 3 3
-23z"/>
<path d="M5560 765 l0 -205 83 0 c115 0 153 9 187 40 22 21 30 37 30 64 0 46
-16 81 -46 96 l-23 13 24 29 c48 57 21 137 -53 158 -20 5 -74 10 -119 10 l-83
0 0 -205z m226 129 c13 -19 15 -32 8 -52 -13 -38 -49 -53 -123 -50 l-63 3 -2
63 -1 62 82 0 c78 0 84 -2 99 -26z m9 -169 c28 -27 31 -45 14 -78 -18 -34 -28
-37 -116 -37 l-83 0 0 70 0 70 80 0 c73 0 83 -3 105 -25z"/>
<path d="M6150 948 c-25 -13 -60 -43 -78 -68 -33 -43 -34 -47 -30 -121 3 -68
7 -82 34 -116 95 -119 270 -106 343 26 71 128 -19 289 -166 299 -46 3 -67 -1
-103 -20z m185 -52 c92 -71 82 -220 -18 -273 -44 -23 -116 -21 -158 3 -39 22
-79 93 -79 140 0 67 54 141 115 157 39 11 108 -3 140 -27z"/>
<path d="M7510 766 c0 -199 1 -206 20 -206 18 0 20 7 20 54 l0 53 78 5 c124 7
182 54 182 147 0 98 -62 142 -207 149 l-93 4 0 -206z m210 137 c54 -31 67
-107 26 -148 -29 -29 -92 -47 -149 -43 l-42 3 -3 103 -3 102 72 0 c48 0 80 -5
99 -17z"/>
<path d="M8010 765 l0 -205 125 0 125 0 0 25 0 25 -105 0 -106 0 3 66 3 67 98
-2 97 -2 0 25 0 26 -100 0 -100 0 0 65 0 65 105 0 105 0 0 25 0 25 -125 0
-125 0 0 -205z"/>
<path d="M8460 765 c0 -198 1 -205 20 -205 19 0 20 7 20 155 0 85 3 155 8 155
4 -1 38 -41 76 -91 38 -49 72 -86 76 -82 4 4 35 44 70 88 34 44 65 81 69 83 3
1 6 -67 6 -150 0 -151 0 -153 23 -156 l22 -3 0 205 c0 160 -3 206 -13 206 -7
0 -48 -46 -91 -102 -44 -57 -82 -106 -86 -111 -3 -4 -44 42 -91 103 -46 60
-90 110 -96 110 -10 0 -13 -48 -13 -205z"/>
<path d="M9190 959 c-82 -33 -130 -105 -130 -196 1 -194 241 -275 362 -122 53
66 53 182 0 249 -54 67 -158 98 -232 69z m168 -65 c44 -34 65 -85 60 -145 -9
-86 -72 -142 -159 -143 -151 0 -216 197 -95 289 17 12 40 25 51 28 40 11 108
-3 143 -29z"/>
<path d="M9670 765 c0 -197 1 -205 20 -205 18 0 20 8 22 93 l3 92 105 0 105 0
3 -92 c2 -85 4 -93 22 -93 19 0 20 8 20 205 0 198 -1 205 -20 205 -19 0 -20
-7 -20 -90 l0 -90 -110 0 -110 0 0 90 c0 83 -1 90 -20 90 -19 0 -20 -7 -20
-205z"/>
<path d="M10160 945 c0 -24 2 -25 63 -25 l62 0 0 -177 c0 -177 0 -178 23 -181
l22 -3 0 180 0 181 60 0 c57 0 60 1 60 25 l0 25 -145 0 -145 0 0 -25z"/>
<path d="M6837 863 c-4 -3 -7 -39 -7 -80 l0 -73 85 0 85 0 0 80 0 80 -78 0
c-43 0 -82 -3 -85 -7z"/>
</g>
</svg>
