<svg xmlns="http://www.w3.org/2000/svg" width="24" height="28" data-code="62002" data-tags="whatsapp"><path d="M15.39 15.219c.266 0 2.813 1.328 2.922 1.515a.647.647 0 0 1 .032.235c0 .39-.125.828-.266 1.187-.36.875-1.812 1.438-2.703 1.438-.75 0-2.297-.657-2.969-.969-2.234-1.016-3.625-2.75-4.968-4.734-.594-.875-1.125-1.954-1.11-3.032v-.125c.031-1.03.406-1.765 1.156-2.468.235-.22.485-.344.813-.344.187 0 .375.047.578.047.422 0 .5.125.656.531.11.266.907 2.39.907 2.547 0 .594-1.079 1.266-1.079 1.625 0 .078.032.156.079.234.343.735 1 1.578 1.593 2.14.719.688 1.485 1.142 2.36 1.579.109.063.218.11.343.11.47 0 1.25-1.516 1.657-1.516zM12.22 23.5c5.406 0 9.812-4.406 9.812-9.812s-4.406-9.813-9.812-9.813-9.813 4.406-9.813 9.813c0 2.062.656 4.078 1.875 5.75l-1.234 3.64 3.781-1.203a9.877 9.877 0 0 0 5.39 1.625zm0-21.594C18.719 1.906 24 7.187 24 13.687S18.719 25.47 12.219 25.47c-1.985 0-3.953-.5-5.703-1.469L0 26.094l2.125-6.328a11.724 11.724 0 0 1-1.687-6.079c0-6.5 5.28-11.78 11.78-11.78z" fill="#444"/></svg>